# xmcd
# 
# Track frame offsets:
#     150
#     31210
#     50540
#     63592
#     76822
#     106445
#     126200
#     157497
#     185287
#     197880
#     219945
#     225682
# 
# Disc length: 3225
# 
# Revision: 6
# Processed by: cddbd v1.5.2PL0 Copyright (c) Steve Scherf et al.
# Submitted via: fre:ac v1.0.31
# 
DISCID=a70c970c
DTITLE=Cirque du Soleil - La Nouba
DYEAR=1999
DGENRE=Soundtrack
TTITLE0=Once upon a time
TTITLE1=A Tale
TTITLE2=Porte
TTITLE3=La Nouba
TTITLE4=Distorted
TTITLE5=Liama
TTITLE6=Queens
TTITLE7=À la lune
TTITLE8=Rêve rouge
TTITLE9=Urban
TTITLE10=Propel
TTITLE11=Jardin Chinois
EXTD=
EXTT0=
EXTT1=
EXTT2=
EXTT3=
EXTT4=
EXTT5=
EXTT6=
EXTT7=
EXTT8=
EXTT9=
EXTT10=
EXTT11=
PLAYORDER=
